<?xml version="1.0" encoding="UTF-8"?>
<svg version="1.1" xmlns="http://www.w3.org/2000/svg" width="326" height="326">
<path d="M0 0 C107.58 0 215.16 0 326 0 C326 107.58 326 215.16 326 326 C218.42 326 110.84 326 0 326 C0 218.42 0 110.84 0 0 Z " fill="none" transform="translate(0,0)"/>
<path d="M0 0 C13.41302542 4.60059614 25.77026286 1.65753164 38.38061523 -3.42578125 C41.22794145 -4.5543164 44.11703915 -5.53951708 47.02075195 -6.51220703 C47.91149414 -6.81771484 48.80223633 -7.12322266 49.7199707 -7.43798828 C57.02129715 -9.5661776 64.35377913 -9.45275901 71.89575195 -9.51220703 C73.09522461 -9.54121094 74.29469727 -9.57021484 75.53051758 -9.60009766 C84.14024327 -9.66050048 91.28788651 -8.22925525 99.33325195 -5.19970703 C100.12546143 -4.90217529 100.9176709 -4.60464355 101.73388672 -4.2980957 C122.41638165 3.97537626 137.51889848 19.33047377 146.33325195 39.80029297 C159.6521716 74.74747624 151.76878173 113.5440142 137.33325195 146.80029297 C131.79991961 158.85707137 125.35759179 170.23019782 117.33325195 180.80029297 C116.69000977 181.65365234 116.04676758 182.50701172 115.3840332 183.38623047 C102.55892665 199.87936952 87.33011517 216.51600445 66.33325195 221.80029297 C52.86776555 223.36988954 40.71745763 220.1758877 28.14575195 215.55029297 C17.14942365 211.80053014 7.89307258 213.77888183 -2.66674805 217.80029297 C-17.59671181 222.71990854 -32.74211087 223.97482259 -47.4753418 217.58154297 C-62.54571164 209.88603497 -74.53098109 197.10702612 -84.66674805 183.80029297 C-83.13282017 180.14564311 -80.94047024 177.85635297 -78.1237793 175.09716797 C-77.2143457 174.19869141 -76.30491211 173.30021484 -75.36791992 172.37451172 C-74.40540273 171.43272366 -73.44250985 170.49131942 -72.47924805 169.55029297 C-70.60832292 167.7142298 -68.7397885 165.87572702 -66.8737793 164.03466797 C-65.62818237 162.81602051 -65.62818237 162.81602051 -64.35742188 161.57275391 C-62.26081657 159.41241911 -60.28423495 157.23178891 -58.31982422 154.95556641 C-54.72504095 150.81048828 -50.91310369 146.93535716 -47.01049805 143.08154297 C-45.95155334 142.0282782 -45.95155334 142.0282782 -44.87121582 140.95373535 C-41.8877743 137.9864553 -38.89834095 135.02523934 -35.90942383 132.06347656 C-33.71184226 129.88410832 -31.51736867 127.7016435 -29.32299805 125.51904297 C-28.65925171 124.86359497 -27.99550537 124.20814697 -27.31164551 123.53283691 C-23.4412271 119.68247122 -19.77095648 115.72091865 -16.22180176 111.57189941 C-14.7629877 109.9099347 -13.24871281 108.34451052 -11.66674805 106.80029297 C-7.98718514 108.36261318 -5.50159011 110.63613379 -2.60424805 113.36279297 C2.85782708 118.41539526 8.52406023 123.14932015 14.33325195 127.80029297 C15.18145508 128.56599609 16.0296582 129.33169922 16.90356445 130.12060547 C19.11280739 132.03732588 19.11280739 132.03732588 21.28637695 131.59716797 C23.68347899 130.66394504 24.78651555 129.62706113 26.51293945 127.72998047 C27.10486084 127.08843018 27.69678223 126.44687988 28.30664062 125.78588867 C29.24793823 124.7411438 29.24793823 124.7411438 30.20825195 123.67529297 C31.55584255 122.20778476 32.90350035 120.74033826 34.2512207 119.27294922 C34.9323291 118.5254541 35.6134375 117.77795898 36.31518555 117.0078125 C39.35505697 113.68256239 42.43936868 110.39951551 45.52075195 107.11279297 C49.29901613 103.06732035 53.06664135 99.01237194 56.81689453 94.94091797 C58.77139349 92.8193594 60.72989172 90.70150815 62.68823242 88.58349609 C63.87683652 87.29504784 65.06306369 86.00440545 66.24780273 84.71240234 C68.27090454 82.50750892 70.30153251 80.30974483 72.33325195 78.11279297 C72.9686792 77.41677979 73.60410645 76.7207666 74.25878906 76.00366211 C74.86086182 75.35518311 75.46293457 74.7067041 76.08325195 74.03857422 C76.6143457 73.46147705 77.14543945 72.88437988 77.69262695 72.28979492 C79.45677634 70.6881468 81.16388163 69.7632458 83.33325195 68.80029297 C84.50512695 70.2976888 85.67700195 71.79508464 86.84887695 73.29248047 C88.54073996 75.17374429 88.54073996 75.17374429 92.33325195 76.80029297 C92.33325195 66.57029297 92.33325195 56.34029297 92.33325195 45.80029297 C80.25518276 48.73637911 80.25518276 48.73637911 68.34887695 52.28466797 C66.33325195 52.80029297 66.33325195 52.80029297 62.33325195 52.80029297 C62.33325195 53.79029297 62.33325195 54.78029297 62.33325195 55.80029297 C63.07575195 56.08904297 63.81825195 56.37779297 64.58325195 56.67529297 C66.90064992 57.62331941 69.1124231 58.64875208 71.33325195 59.80029297 C70.00469001 62.72672534 68.53761018 64.87036927 66.3215332 67.19091797 C65.73243164 67.81353516 65.14333008 68.43615234 64.53637695 69.07763672 C63.9124707 69.72861328 63.28856445 70.37958984 62.64575195 71.05029297 C61.35968899 72.40881019 60.07452051 73.76817478 58.7902832 75.12841797 C58.2125415 75.73588867 57.6347998 76.34335938 57.03955078 76.96923828 C54.72048707 79.4578601 52.49918379 82.02532947 50.2824707 84.60498047 C46.88162678 88.43518946 43.33797955 92.13462742 39.82006836 95.85717773 C36.75176244 99.12679785 33.76458863 102.4323082 30.8996582 105.88232422 C30.36107178 106.52991699 29.82248535 107.17750977 29.26757812 107.84472656 C28.24802695 109.08249075 27.23857389 110.32866063 26.24072266 111.58398438 C24.85668945 113.26513672 24.85668945 113.26513672 22.33325195 115.80029297 C17.50153723 115.80029297 16.96965339 114.967816 13.58325195 111.73779297 C12.70024414 110.91150391 11.81723633 110.08521484 10.9074707 109.23388672 C10.05797852 108.43080078 9.20848633 107.62771484 8.33325195 106.80029297 C2.17510005 101.25442386 -4.23014814 96.01819841 -10.66674805 90.80029297 C-14.35669596 92.34413325 -16.69069315 94.5884324 -19.47924805 97.42529297 C-20.29006836 98.24255859 -21.10088867 99.05982422 -21.9362793 99.90185547 C-23.95899801 102.04900466 -25.88774566 104.21058382 -27.8034668 106.44873047 C-32.92780174 112.34821579 -38.56307534 117.75437973 -44.1237793 123.23681641 C-49.25444846 128.30179641 -54.27482919 133.39308842 -58.96362305 138.87451172 C-62.86146297 143.28193163 -67.15462427 147.32416425 -71.3503418 151.44482422 C-75.44547852 155.49552907 -79.36059369 159.62358784 -83.09863281 164.00732422 C-85.49114377 166.74289957 -88.06617244 169.26314603 -90.66674805 171.80029297 C-94.96907478 170.36618406 -96.19147697 167.17409616 -98.35424805 163.42529297 C-98.79414062 162.66796875 -99.2340332 161.91064453 -99.68725586 161.13037109 C-104.47822649 152.67082643 -108.16065153 143.85194236 -111.66674805 134.80029297 C-111.9503418 134.09437012 -112.23393555 133.38844727 -112.52612305 132.66113281 C-117.32137415 120.68714199 -119.76678802 108.5341499 -121.66674805 95.80029297 C-121.77132324 95.10814697 -121.87589844 94.41600098 -121.98364258 93.70288086 C-125.3446598 69.50536062 -121.20729089 44.61191849 -106.9753418 24.39794922 C-105.25801073 22.15043541 -103.47736397 19.97303207 -101.66674805 17.80029297 C-101.16916992 17.14544922 -100.6715918 16.49060547 -100.15893555 15.81591797 C-74.86006319 -15.96658499 -34.12263952 -13.36363245 0 0 Z " fill="#773676" transform="translate(147.666748046875,90.19970703125)"/>
<path d="M0 0 C1 1 1 1 1.171875 4.53515625 C1.11217089 9.00201896 0.32109226 13.11378875 -0.75 17.4375 C-0.93191895 18.18322266 -1.11383789 18.92894531 -1.30126953 19.69726562 C-4.5256354 32.43893574 -11.180227 45.94607561 -22.74560547 53.07617188 C-37.19272238 61.24430751 -49.55167367 63.48856415 -66 63 C-64.89309355 43.44465265 -57.30780895 26.20889744 -42.8125 13.0078125 C-30.91303765 3.10575991 -15.38739492 -1.37955954 0 0 Z " fill="#94407C" transform="translate(230,12)"/>
<path d="M0 0 C16.23887586 -0.69705826 30.8489604 3.51339463 43.375 14.25 C55.12232316 25.65011164 63.64367315 41.17826884 64.07421875 57.87890625 C64.03748047 58.92884766 64.03748047 58.92884766 64 60 C46.59518203 60.64997246 31.26117593 57.88625231 17.75 46 C8.16618821 37.10030397 2.12426497 24.85938975 0 12 C-0.0659735 9.89676466 -0.08562245 7.79164276 -0.0625 5.6875 C-0.05347656 4.61886719 -0.04445313 3.55023437 -0.03515625 2.44921875 C-0.02355469 1.64097656 -0.01195313 0.83273437 0 0 Z " fill="#96427E" transform="translate(93,15)"/>
<path d="M0 0 C0.33 0 0.66 0 1 0 C1 30.36 1 60.72 1 92 C-6.59 92 -14.18 92 -22 92 C-22.34145305 83.41009184 -22.61544801 74.82561074 -22.77718258 66.23069763 C-22.85488455 62.23778695 -22.95985541 58.24982596 -23.1315918 54.25976562 C-24.36068329 24.93662706 -24.36068329 24.93662706 -16.90882874 16.27954102 C-14.39542724 13.84399786 -11.77758487 11.67617028 -8.96487427 9.59619141 C-6.04750974 7.22623204 -3.74089292 4.41655159 -1.35191345 1.52807617 C-0.90578201 1.02381104 -0.45965057 0.5195459 0 0 Z " fill="#FCFCFB" transform="translate(223,182)"/>
<path d="M0 0 C2.36950443 1.45401408 4.5884675 2.94164682 6.75 4.6875 C7.15089844 4.254375 7.55179688 3.82125 7.96484375 3.375 C11.24485739 0.16192542 13.60899663 -1.75541941 18.3125 -1.875 C23.56897133 -1.48165861 27.05743527 0.30672351 31.125 3.625 C33.97496972 8.99609679 33.77089289 15.16572157 32.08984375 20.96484375 C28.31218532 29.2233611 21.50100077 35.14565299 14.625 40.8125 C14.02703613 41.32272705 13.42907227 41.8329541 12.81298828 42.35864258 C11.0546875 43.7578125 11.0546875 43.7578125 7.75 45.6875 C-1.90762781 43.84929851 -12.09698097 32.14300828 -17.76953125 24.69140625 C-21.02570776 19.15705678 -21.27637661 12.93348413 -20.25 6.6875 C-18.64947882 3.39789126 -16.34271587 1.51645687 -13.4375 -0.6875 C-8.58206086 -2.07476833 -4.59466897 -1.85553939 0 0 Z " fill="#FCFBFB" transform="translate(88.25,129.3125)"/>
<path d="M0 0 C0 20.13 0 40.26 0 61 C-7.92 61 -15.84 61 -24 61 C-27.51078711 25.78574145 -27.51078711 25.78574145 -20.57345581 16.19744873 C-16.22238495 10.9642645 -6.95477518 0 0 0 Z " fill="#F9F9F9" transform="translate(140,213)"/>
<path d="M0 0 C0.02527062 6.39037231 0.04283317 12.78073183 0.05493164 19.17114258 C0.05997308 21.34692873 0.06680607 23.52271147 0.07543945 25.69848633 C0.08751338 28.81853067 0.09323005 31.93853038 0.09765625 35.05859375 C0.10281754 36.03775253 0.10797882 37.01691132 0.11329651 38.02574158 C0.11340981 39.37702904 0.11340981 39.37702904 0.11352539 40.75561523 C0.115746 41.55281479 0.11796661 42.35001434 0.12025452 43.17137146 C0 45 0 45 -1 46 C-2.70772358 46.08713831 -4.41898649 46.10700007 -6.12890625 46.09765625 C-7.06033447 46.09515869 -7.9917627 46.09266113 -8.95141602 46.09008789 C-10.73890259 46.07643188 -10.73890259 46.07643188 -12.5625 46.0625 C-16.336875 46.041875 -20.11125 46.02125 -24 46 C-24 32.14 -24 18.28 -24 4 C-19.545 6.97 -19.545 6.97 -15 10 C-10.55579954 7.77789977 -7.6243517 5.04133829 -4.0234375 1.6796875 C-2 0 -2 0 0 0 Z " fill="#FAFAFA" transform="translate(183,228)"/>
<path d="M0 0 C0 3 0 3 -1.4609375 4.68359375 C-2.09257813 5.26238281 -2.72421875 5.84117187 -3.375 6.4375 C-5.94582115 8.80202068 -7.60084869 10.78477855 -9 14 C-9.66 14 -10.32 14 -11 14 C-11 14.66 -11 15.32 -11 16 C-11.66 16 -12.32 16 -13 16 C-13 16.66 -13 17.32 -13 18 C-13.804375 18.78375 -14.60875 19.5675 -15.4375 20.375 C-17.81810326 22.81366675 -18.63635918 23.7272326 -19 27 C-19.99 26.01 -20.98 25.02 -22 24 C-20.4608199 20.33247995 -18.24514548 18.01419427 -15.4296875 15.234375 C-14.08583984 13.90019531 -14.08583984 13.90019531 -12.71484375 12.5390625 C-11.77769531 11.61867188 -10.84054688 10.69828125 -9.875 9.75 C-8.92011363 8.80515144 -7.96568141 7.85984367 -7.01171875 6.9140625 C-4.67890913 4.60481662 -2.34155914 2.30036797 0 0 Z " fill="#653E7B" transform="translate(85,250)"/>
<path d="M0 0 C0.33 0.99 0.66 1.98 1 3 C-3.15207792 7.2626362 -7.36321221 11.26795129 -12 15 C-12.66 14.67 -13.32 14.34 -14 14 C-9.38 9.38 -4.76 4.76 0 0 Z " fill="#794A85" transform="translate(111,223)"/>
<path d="M0 0 C0.66 0.33 1.32 0.66 2 1 C-2.03523352 5.81123996 -6.04467233 10.13242719 -11 14 C-9.61085525 9.70281047 -7.61968015 7.29312243 -4.375 4.1875 C-3.55773437 3.39730469 -2.74046875 2.60710937 -1.8984375 1.79296875 C-0.95871094 0.90544922 -0.95871094 0.90544922 0 0 Z " fill="#7E4982" transform="translate(136,197)"/>
<path d="M0 0 C0.99 0.33 1.98 0.66 3 1 C-3.07439825 7.86214442 -3.07439825 7.86214442 -6.9375 8.4375 C-7.9584375 8.2209375 -7.9584375 8.2209375 -9 8 C-8.3125 6.125 -8.3125 6.125 -7 4 C-4.5 2.875 -4.5 2.875 -2 2 C-1.34 1.34 -0.68 0.68 0 0 Z " fill="#64427E" transform="translate(251,284)"/>
<path d="M0 0 C-1.04874998 2.62187494 -1.64931313 3.79371361 -4.125 5.25 C-4.74375 5.4975 -5.3625 5.745 -6 6 C-6.33 4.68 -6.66 3.36 -7 2 C-2.25 0 -2.25 0 0 0 Z " fill="#623579" transform="translate(61,256)"/>
<path d="M0 0 C1.98 0.495 1.98 0.495 4 1 C2.25 4.875 2.25 4.875 0 6 C-1.125 2.25 -1.125 2.25 0 0 Z " fill="#6D3C73" transform="translate(87,224)"/>
</svg>
